<?xml version="1.0" encoding="utf-8"?>
<!-- Generator: Adobe Illustrator 26.5.0, SVG Export Plug-In . SVG Version: 6.00 Build 0)  -->
<svg version="1.1" id="Layer_1" xmlns="http://www.w3.org/2000/svg" xmlns:xlink="http://www.w3.org/1999/xlink" x="0px" y="0px"
	 viewBox="0 0 1920 1080" style="enable-background:new 0 0 1920 1080;" xml:space="preserve">
<style type="text/css">
	.st0{fill:none;stroke:#CBCBCB;stroke-width:1.5;stroke-linecap:round;stroke-linejoin:round;stroke-miterlimit:10;}
	.st1{fill:none;stroke:#000000;stroke-width:0.75;stroke-linecap:round;stroke-linejoin:round;stroke-miterlimit:10;}
	.st2{font-family:'Helvetica';}
	.st3{font-size:12px;}
	.st4{letter-spacing:67;}
	.st5{letter-spacing:64;}
	.st6{fill:none;stroke:#4D4D4D;stroke-width:1.5;stroke-linecap:round;stroke-linejoin:round;stroke-miterlimit:10;}
	.st7{fill:#CBCBCB;}
	.st8{fill:#4D4D4D;}
</style>
<g>
	<polyline class="st0" points="794.48,553.93 798.32,552.43 802.16,550.92 806,549.42 809.84,547.91 813.68,546.4 817.52,544.9 
		821.36,543.39 825.2,541.89 829.04,540.38 832.88,538.88 836.72,537.36 840.56,535.86 844.4,534.35 848.24,532.85 852.08,531.35 
		855.92,529.85 859.76,528.34 863.6,526.84 867.44,525.33 871.28,523.83 875.12,522.32 878.96,520.82 882.8,519.31 886.64,517.8 
		890.48,516.3 894.32,514.79 898.16,513.29 902,511.78 905.84,510.28 909.68,508.77 913.52,507.27 917.36,505.76 921.2,504.26 
		925.04,502.75 928.88,501.25 932.72,499.74 936.56,498.24 940.4,496.73 944.24,495.23 948.08,493.72 951.92,492.22 955.76,490.71 
		959.6,489.2 963.44,487.7 967.28,486.18 971.12,484.68 974.96,483.18 978.8,481.68 982.64,480.17 986.48,478.67 990.32,477.16 
		994.16,475.66 998,474.15 1001.84,472.65 1005.68,471.14 1009.52,469.64 1013.36,468.13 1017.2,466.63 1021.04,465.12 
		1024.88,463.62 1028.72,462.11 1032.56,460.6 1036.4,459.1 1040.24,457.59 1044.08,456.09 1047.92,454.58 1051.76,453.08 
		1055.6,451.57 1059.44,450.07 1063.28,448.56 1067.12,447.06 1070.96,445.55 1074.8,444.05 1078.64,442.54 1082.48,441.04 
		1086.32,439.53 1090.16,438.03 1094,436.52 1097.84,435.02 1101.68,433.51 1105.52,432 1109.36,430.5 1113.2,428.99 
		1117.04,427.49 1120.88,425.98 1124.72,424.48 1128.56,422.97 1132.4,421.47 1136.24,419.96 1140.08,418.46 1143.92,416.95 
		1147.76,415.45 1151.6,413.94 1155.44,412.44 1159.28,410.93 1163.12,409.43 1166.96,407.92 1170.8,406.42 1174.64,404.91 
		1178.48,403.39 	"/>
	<path class="st1" d="M794.48,719.1h384 M794.48,719.1v7.2 M871.28,719.1v7.2 M948.08,719.1v7.2 M1024.88,719.1v7.2 M1101.68,719.1
		v7.2 M1178.48,719.1v7.2"/>
	<text transform="matrix(1 0 0 1 791.4814 745.0038)" class="st2 st3 st4">02</text>
	<text transform="matrix(1 0 0 1 871.2861 745.0038)" class="st2 st3 st5">04</text>
	<text transform="matrix(1 0 0 1 948.083 745.0038)" class="st2 st3 st5">06</text>
	<text transform="matrix(1 0 0 1 1024.8877 745.0038)" class="st2 st3 st5">08</text>
	<text transform="matrix(1 0 0 1 1101.6846 745.0038)" class="st2 st3">0</text>
	<text transform="matrix(1 0 0 1 1169.4893 745.0038)" class="st2 st3">100</text>
	<path class="st1" d="M779.12,703.73v-384 M779.12,703.73h-7.2 M779.12,626.93h-7.2 M779.12,550.14h-7.2 M779.12,473.33h-7.2
		 M779.12,396.54h-7.2 M779.12,319.74h-7.2"/>
	<text transform="matrix(0 -1 1 0 761.8408 711.2382)" class="st2 st3">0.0</text>
	<text transform="matrix(0 -1 1 0 761.8408 634.4335)" class="st2 st3">0.2</text>
	<text transform="matrix(0 -1 1 0 761.8408 557.6366)" class="st2 st3">0.4</text>
	<text transform="matrix(0 -1 1 0 761.8408 480.8397)" class="st2 st3">0.6</text>
	<text transform="matrix(0 -1 1 0 761.8408 404.035)" class="st2 st3">0.8</text>
	<text transform="matrix(0 -1 1 0 761.8408 327.2382)" class="st2 st3">1.0</text>
	<rect x="779.12" y="304.38" class="st1" width="414.72" height="414.72"/>
	<text transform="matrix(1 0 0 1 914.8174 773.8163)" class="st2 st3">Predicted winning probability</text>
	<text transform="matrix(0 -1 1 0 733.0439 539.3944)" class="st2 st3">Confidence</text>
	<polyline class="st6" points="794.48,522.92 798.32,522.27 802.16,521.6 806,520.95 809.84,520.29 813.68,519.62 817.52,518.96 
		821.36,518.31 825.2,517.65 829.04,516.99 832.88,516.34 836.72,515.68 840.56,515.02 844.4,514.35 848.24,513.7 852.08,513.04 
		855.92,512.39 859.76,511.73 863.6,511.07 867.44,510.4 871.28,509.75 875.12,509.09 878.96,508.43 882.8,507.77 886.64,507.12 
		890.48,506.46 894.32,505.8 898.16,505.14 902,504.48 905.84,503.82 909.68,503.15 913.52,502.51 917.36,501.85 921.2,501.18 
		925.04,500.53 928.88,499.87 932.72,499.21 936.56,498.55 940.4,497.89 944.24,497.24 948.08,496.58 951.92,495.92 955.76,495.26 
		959.6,494.6 963.44,493.93 967.28,493.28 971.12,492.62 974.96,491.97 978.8,491.31 982.64,490.65 986.48,489.99 990.32,489.33 
		994.16,488.67 998,488.01 1001.84,487.36 1005.68,486.7 1009.52,486.04 1013.36,485.38 1017.2,484.72 1021.04,484.06 
		1024.88,483.4 1028.72,482.74 1032.56,482.09 1036.4,481.43 1040.24,480.77 1044.08,480.11 1047.92,479.45 1051.76,478.79 
		1055.6,478.13 1059.44,477.48 1063.28,476.82 1067.12,476.16 1070.96,475.5 1074.8,474.84 1078.64,474.18 1082.48,473.52 
		1086.32,472.86 1090.16,472.21 1094,471.55 1097.84,470.89 1101.68,470.23 1105.52,469.57 1109.36,468.91 1113.2,468.24 
		1117.04,467.6 1120.88,466.93 1124.72,466.28 1128.56,465.62 1132.4,464.96 1136.24,464.3 1140.08,463.64 1143.92,462.98 
		1147.76,462.33 1151.6,461.67 1155.44,461.01 1159.28,460.35 1163.12,459.68 1166.96,459.03 1170.8,458.36 1174.64,457.71 
		1178.48,457.06 	"/>
	<path class="st7" d="M797.3,511.74c0-1.49-1.21-2.7-2.7-2.7c-1.49,0-2.7,1.21-2.7,2.7c0,1.49,1.21,2.7,2.7,2.7
		C796.09,514.43,797.3,513.23,797.3,511.74"/>
	<path class="st7" d="M828.86,588.54c0-1.49-1.21-2.7-2.7-2.7c-1.49,0-2.7,1.21-2.7,2.7c0,1.49,1.21,2.7,2.7,2.7
		C827.65,591.23,828.86,590.03,828.86,588.54"/>
	<path class="st7" d="M806.18,596.21c0-1.49-1.21-2.7-2.7-2.7c-1.49,0-2.7,1.21-2.7,2.7c0,1.49,1.21,2.7,2.7,2.7
		C804.97,598.92,806.18,597.71,806.18,596.21"/>
	<path class="st7" d="M797.18,550.14c0-1.49-1.21-2.7-2.7-2.7c-1.49,0-2.7,1.21-2.7,2.7c0,1.49,1.21,2.7,2.7,2.7
		C795.97,552.83,797.18,551.63,797.18,550.14"/>
	<path class="st7" d="M1012.58,588.54c0-1.49-1.21-2.7-2.7-2.7s-2.7,1.21-2.7,2.7c0,1.49,1.21,2.7,2.7,2.7
		S1012.58,590.03,1012.58,588.54"/>
	<path class="st7" d="M1158.5,419.58c0-1.49-1.21-2.7-2.7-2.7c-1.49,0-2.7,1.21-2.7,2.7s1.21,2.7,2.7,2.7
		C1157.29,422.28,1158.5,421.07,1158.5,419.58"/>
	<path class="st7" d="M1181.18,396.54c0-1.49-1.21-2.7-2.7-2.7s-2.7,1.21-2.7,2.7c0,1.49,1.21,2.7,2.7,2.7
		S1181.18,398.03,1181.18,396.54"/>
	<path class="st7" d="M812.54,511.74c0-1.49-1.21-2.7-2.7-2.7c-1.49,0-2.7,1.21-2.7,2.7c0,1.49,1.21,2.7,2.7,2.7
		C811.33,514.43,812.54,513.23,812.54,511.74"/>
	<path class="st7" d="M1133.06,358.14c0-1.49-1.21-2.7-2.7-2.7c-1.49,0-2.7,1.21-2.7,2.7c0,1.49,1.21,2.7,2.7,2.7
		C1131.85,360.83,1133.06,359.63,1133.06,358.14"/>
	<path class="st7" d="M797.18,611.58c0-1.49-1.21-2.7-2.7-2.7c-1.49,0-2.7,1.21-2.7,2.7s1.21,2.7,2.7,2.7
		C795.97,614.28,797.18,613.07,797.18,611.58"/>
	<path class="st7" d="M806.18,553.97c0-1.49-1.21-2.7-2.7-2.7c-1.49,0-2.7,1.21-2.7,2.7c0,1.49,1.21,2.7,2.7,2.7
		C804.97,556.68,806.18,555.47,806.18,553.97"/>
	<path class="st7" d="M798.74,511.74c0-1.49-1.21-2.7-2.7-2.7c-1.49,0-2.7,1.21-2.7,2.7c0,1.49,1.21,2.7,2.7,2.7
		C797.53,514.43,798.74,513.23,798.74,511.74"/>
	<path class="st7" d="M1041.86,454.14c0-1.49-1.21-2.7-2.7-2.7c-1.49,0-2.7,1.21-2.7,2.7c0,1.49,1.21,2.7,2.7,2.7
		C1040.65,456.83,1041.86,455.63,1041.86,454.14"/>
	<path class="st7" d="M1041.86,638.46c0-1.49-1.21-2.7-2.7-2.7c-1.49,0-2.7,1.21-2.7,2.7s1.21,2.7,2.7,2.7
		C1040.65,641.16,1041.86,639.95,1041.86,638.46"/>
	<path class="st7" d="M812.54,550.14c0-1.49-1.21-2.7-2.7-2.7c-1.49,0-2.7,1.21-2.7,2.7c0,1.49,1.21,2.7,2.7,2.7
		C811.33,552.83,812.54,551.63,812.54,550.14"/>
	<path class="st7" d="M799.22,626.93c0-1.49-1.21-2.7-2.7-2.7s-2.7,1.21-2.7,2.7s1.21,2.7,2.7,2.7S799.22,628.43,799.22,626.93"/>
	<path class="st7" d="M823.7,550.14c0-1.49-1.21-2.7-2.7-2.7s-2.7,1.21-2.7,2.7c0,1.49,1.21,2.7,2.7,2.7S823.7,551.63,823.7,550.14"
		/>
	<path class="st7" d="M1158.5,588.54c0-1.49-1.21-2.7-2.7-2.7c-1.49,0-2.7,1.21-2.7,2.7c0,1.49,1.21,2.7,2.7,2.7
		C1157.29,591.23,1158.5,590.03,1158.5,588.54"/>
	<path class="st7" d="M1041.86,338.93c0-1.49-1.21-2.7-2.7-2.7c-1.49,0-2.7,1.21-2.7,2.7s1.21,2.7,2.7,2.7
		C1040.65,341.64,1041.86,340.43,1041.86,338.93"/>
	<path class="st7" d="M1012.58,396.54c0-1.49-1.21-2.7-2.7-2.7s-2.7,1.21-2.7,2.7c0,1.49,1.21,2.7,2.7,2.7
		S1012.58,398.03,1012.58,396.54"/>
	<path class="st7" d="M963.86,454.14c0-1.49-1.21-2.7-2.7-2.7c-1.49,0-2.7,1.21-2.7,2.7c0,1.49,1.21,2.7,2.7,2.7
		C962.65,456.83,963.86,455.63,963.86,454.14"/>
	<path class="st7" d="M806.18,446.46c0-1.49-1.21-2.7-2.7-2.7c-1.49,0-2.7,1.21-2.7,2.7c0,1.49,1.21,2.7,2.7,2.7
		C804.97,449.15,806.18,447.95,806.18,446.46"/>
	<path class="st7" d="M806.18,511.74c0-1.49-1.21-2.7-2.7-2.7c-1.49,0-2.7,1.21-2.7,2.7c0,1.49,1.21,2.7,2.7,2.7
		C804.97,514.43,806.18,513.23,806.18,511.74"/>
	<path class="st7" d="M828.86,703.73c0-1.49-1.21-2.7-2.7-2.7c-1.49,0-2.7,1.21-2.7,2.7c0,1.49,1.21,2.7,2.7,2.7
		C827.65,706.43,828.86,705.23,828.86,703.73"/>
	<path class="st7" d="M963.86,396.54c0-1.49-1.21-2.7-2.7-2.7c-1.49,0-2.7,1.21-2.7,2.7c0,1.49,1.21,2.7,2.7,2.7
		C962.65,399.23,963.86,398.03,963.86,396.54"/>
	<path class="st7" d="M916.34,465.65c0-1.49-1.21-2.7-2.7-2.7s-2.7,1.21-2.7,2.7s1.21,2.7,2.7,2.7S916.34,467.15,916.34,465.65"/>
	<path class="st7" d="M1012.58,569.33c0-1.49-1.21-2.7-2.7-2.7s-2.7,1.21-2.7,2.7c0,1.49,1.21,2.7,2.7,2.7
		S1012.58,570.83,1012.58,569.33"/>
	<path class="st7" d="M797.18,507.9c0-1.49-1.21-2.7-2.7-2.7c-1.49,0-2.7,1.21-2.7,2.7c0,1.49,1.21,2.7,2.7,2.7
		C795.97,510.6,797.18,509.39,797.18,507.9"/>
	<path class="st7" d="M916.34,607.73c0-1.49-1.21-2.7-2.7-2.7s-2.7,1.21-2.7,2.7c0,1.49,1.21,2.7,2.7,2.7
		S916.34,609.23,916.34,607.73"/>
	<path class="st7" d="M860.42,511.74c0-1.49-1.21-2.7-2.7-2.7c-1.49,0-2.7,1.21-2.7,2.7c0,1.49,1.21,2.7,2.7,2.7
		C859.21,514.43,860.42,513.23,860.42,511.74"/>
	<path class="st7" d="M1081.34,358.14c0-1.49-1.21-2.7-2.7-2.7c-1.49,0-2.7,1.21-2.7,2.7c0,1.49,1.21,2.7,2.7,2.7
		C1080.13,360.83,1081.34,359.63,1081.34,358.14"/>
	<path class="st7" d="M797.3,511.74c0-1.49-1.21-2.7-2.7-2.7c-1.49,0-2.7,1.21-2.7,2.7c0,1.49,1.21,2.7,2.7,2.7
		C796.09,514.43,797.3,513.23,797.3,511.74"/>
	<path class="st7" d="M916.34,396.54c0-1.49-1.21-2.7-2.7-2.7s-2.7,1.21-2.7,2.7c0,1.49,1.21,2.7,2.7,2.7
		S916.34,398.03,916.34,396.54"/>
	<path class="st7" d="M941.78,434.93c0-1.49-1.21-2.7-2.7-2.7c-1.49,0-2.7,1.21-2.7,2.7c0,1.49,1.21,2.7,2.7,2.7
		C940.57,437.64,941.78,436.43,941.78,434.93"/>
	<path class="st7" d="M797.18,550.14c0-1.49-1.21-2.7-2.7-2.7c-1.49,0-2.7,1.21-2.7,2.7c0,1.49,1.21,2.7,2.7,2.7
		C795.97,552.83,797.18,551.63,797.18,550.14"/>
	<path class="st7" d="M797.54,607.73c0-1.49-1.21-2.7-2.7-2.7c-1.49,0-2.7,1.21-2.7,2.7c0,1.49,1.21,2.7,2.7,2.7
		C796.33,610.43,797.54,609.23,797.54,607.73"/>
	<path class="st7" d="M916.34,415.73c0-1.49-1.21-2.7-2.7-2.7s-2.7,1.21-2.7,2.7s1.21,2.7,2.7,2.7S916.34,417.23,916.34,415.73"/>
	<path class="st7" d="M812.54,626.93c0-1.49-1.21-2.7-2.7-2.7c-1.49,0-2.7,1.21-2.7,2.7s1.21,2.7,2.7,2.7
		C811.33,629.64,812.54,628.43,812.54,626.93"/>
	<path class="st7" d="M860.42,607.73c0-1.49-1.21-2.7-2.7-2.7c-1.49,0-2.7,1.21-2.7,2.7c0,1.49,1.21,2.7,2.7,2.7
		C859.21,610.43,860.42,609.23,860.42,607.73"/>
	<path class="st7" d="M963.86,415.73c0-1.49-1.21-2.7-2.7-2.7c-1.49,0-2.7,1.21-2.7,2.7s1.21,2.7,2.7,2.7
		C962.65,418.43,963.86,417.23,963.86,415.73"/>
	<path class="st7" d="M806.18,550.14c0-1.49-1.21-2.7-2.7-2.7c-1.49,0-2.7,1.21-2.7,2.7c0,1.49,1.21,2.7,2.7,2.7
		C804.97,552.83,806.18,551.63,806.18,550.14"/>
	<path class="st7" d="M1041.86,396.54c0-1.49-1.21-2.7-2.7-2.7c-1.49,0-2.7,1.21-2.7,2.7c0,1.49,1.21,2.7,2.7,2.7
		C1040.65,399.23,1041.86,398.03,1041.86,396.54"/>
	<path class="st8" d="M1133.06,434.93c0-1.49-1.21-2.7-2.7-2.7c-1.49,0-2.7,1.21-2.7,2.7c0,1.49,1.21,2.7,2.7,2.7
		C1131.85,437.64,1133.06,436.43,1133.06,434.93"/>
	<path class="st8" d="M862.7,626.93c0-1.49-1.21-2.7-2.7-2.7s-2.7,1.21-2.7,2.7s1.21,2.7,2.7,2.7S862.7,628.43,862.7,626.93"/>
	<path class="st8" d="M1158.5,492.54c0-1.49-1.21-2.7-2.7-2.7c-1.49,0-2.7,1.21-2.7,2.7c0,1.49,1.21,2.7,2.7,2.7
		C1157.29,495.23,1158.5,494.03,1158.5,492.54"/>
	<path class="st8" d="M806.18,580.85c0-1.49-1.21-2.7-2.7-2.7c-1.49,0-2.7,1.21-2.7,2.7c0,1.49,1.21,2.7,2.7,2.7
		C804.97,583.55,806.18,582.35,806.18,580.85"/>
	<path class="st8" d="M803.3,434.93c0-1.49-1.21-2.7-2.7-2.7c-1.49,0-2.7,1.21-2.7,2.7c0,1.49,1.21,2.7,2.7,2.7
		C802.09,437.64,803.3,436.43,803.3,434.93"/>
	<path class="st8" d="M862.7,511.74c0-1.49-1.21-2.7-2.7-2.7s-2.7,1.21-2.7,2.7c0,1.49,1.21,2.7,2.7,2.7S862.7,513.23,862.7,511.74"
		/>
	<path class="st8" d="M798.74,511.74c0-1.49-1.21-2.7-2.7-2.7c-1.49,0-2.7,1.21-2.7,2.7c0,1.49,1.21,2.7,2.7,2.7
		C797.53,514.43,798.74,513.23,798.74,511.74"/>
	<path class="st8" d="M812.54,511.74c0-1.49-1.21-2.7-2.7-2.7c-1.49,0-2.7,1.21-2.7,2.7c0,1.49,1.21,2.7,2.7,2.7
		C811.33,514.43,812.54,513.23,812.54,511.74"/>
	<path class="st8" d="M897.86,434.93c0-1.49-1.21-2.7-2.7-2.7c-1.49,0-2.7,1.21-2.7,2.7c0,1.49,1.21,2.7,2.7,2.7
		C896.65,437.64,897.86,436.43,897.86,434.93"/>
	<path class="st8" d="M803.3,492.54c0-1.49-1.21-2.7-2.7-2.7c-1.49,0-2.7,1.21-2.7,2.7c0,1.49,1.21,2.7,2.7,2.7
		C802.09,495.23,803.3,494.03,803.3,492.54"/>
	<path class="st8" d="M812.54,607.73c0-1.49-1.21-2.7-2.7-2.7c-1.49,0-2.7,1.21-2.7,2.7c0,1.49,1.21,2.7,2.7,2.7
		C811.33,610.43,812.54,609.23,812.54,607.73"/>
	<path class="st8" d="M797.18,607.73c0-1.49-1.21-2.7-2.7-2.7c-1.49,0-2.7,1.21-2.7,2.7c0,1.49,1.21,2.7,2.7,2.7
		C795.97,610.43,797.18,609.23,797.18,607.73"/>
	<path class="st8" d="M806.18,461.82c0-1.49-1.21-2.7-2.7-2.7c-1.49,0-2.7,1.21-2.7,2.7c0,1.49,1.21,2.7,2.7,2.7
		C804.97,464.52,806.18,463.31,806.18,461.82"/>
	<path class="st8" d="M862.7,569.33c0-1.49-1.21-2.7-2.7-2.7s-2.7,1.21-2.7,2.7c0,1.49,1.21,2.7,2.7,2.7S862.7,570.83,862.7,569.33"
		/>
	<path class="st8" d="M797.18,550.14c0-1.49-1.21-2.7-2.7-2.7c-1.49,0-2.7,1.21-2.7,2.7c0,1.49,1.21,2.7,2.7,2.7
		C795.97,552.83,797.18,551.63,797.18,550.14"/>
	<path class="st8" d="M797.54,607.73c0-1.49-1.21-2.7-2.7-2.7c-1.49,0-2.7,1.21-2.7,2.7c0,1.49,1.21,2.7,2.7,2.7
		C796.33,610.43,797.54,609.23,797.54,607.73"/>
	<path class="st8" d="M806.18,473.33c0-1.49-1.21-2.7-2.7-2.7c-1.49,0-2.7,1.21-2.7,2.7c0,1.49,1.21,2.7,2.7,2.7
		C804.97,476.04,806.18,474.83,806.18,473.33"/>
	<path class="st8" d="M828.86,434.93c0-1.49-1.21-2.7-2.7-2.7c-1.49,0-2.7,1.21-2.7,2.7c0,1.49,1.21,2.7,2.7,2.7
		C827.65,437.64,828.86,436.43,828.86,434.93"/>
	<path class="st8" d="M860.42,454.14c0-1.49-1.21-2.7-2.7-2.7c-1.49,0-2.7,1.21-2.7,2.7c0,1.49,1.21,2.7,2.7,2.7
		C859.21,456.83,860.42,455.63,860.42,454.14"/>
	<path class="st8" d="M862.7,530.93c0-1.49-1.21-2.7-2.7-2.7s-2.7,1.21-2.7,2.7s1.21,2.7,2.7,2.7S862.7,532.43,862.7,530.93"/>
	<path class="st8" d="M860.42,607.73c0-1.49-1.21-2.7-2.7-2.7c-1.49,0-2.7,1.21-2.7,2.7c0,1.49,1.21,2.7,2.7,2.7
		C859.21,610.43,860.42,609.23,860.42,607.73"/>
	<path class="st8" d="M1012.58,408.05c0-1.49-1.21-2.7-2.7-2.7s-2.7,1.21-2.7,2.7s1.21,2.7,2.7,2.7S1012.58,409.55,1012.58,408.05"
		/>
	<path class="st8" d="M823.7,446.46c0-1.49-1.21-2.7-2.7-2.7s-2.7,1.21-2.7,2.7c0,1.49,1.21,2.7,2.7,2.7S823.7,447.95,823.7,446.46"
		/>
	<path class="st8" d="M1133.06,550.14c0-1.49-1.21-2.7-2.7-2.7c-1.49,0-2.7,1.21-2.7,2.7c0,1.49,1.21,2.7,2.7,2.7
		C1131.85,552.83,1133.06,551.63,1133.06,550.14"/>
	<path class="st8" d="M823.7,569.33c0-1.49-1.21-2.7-2.7-2.7s-2.7,1.21-2.7,2.7c0,1.49,1.21,2.7,2.7,2.7S823.7,570.83,823.7,569.33"
		/>
	<path class="st8" d="M803.3,607.73c0-1.49-1.21-2.7-2.7-2.7c-1.49,0-2.7,1.21-2.7,2.7c0,1.49,1.21,2.7,2.7,2.7
		C802.09,610.43,803.3,609.23,803.3,607.73"/>
	<path class="st8" d="M963.86,511.74c0-1.49-1.21-2.7-2.7-2.7c-1.49,0-2.7,1.21-2.7,2.7c0,1.49,1.21,2.7,2.7,2.7
		C962.65,514.43,963.86,513.23,963.86,511.74"/>
	<path class="st8" d="M797.18,473.33c0-1.49-1.21-2.7-2.7-2.7c-1.49,0-2.7,1.21-2.7,2.7c0,1.49,1.21,2.7,2.7,2.7
		C795.97,476.04,797.18,474.83,797.18,473.33"/>
	<path class="st8" d="M941.78,423.41c0-1.49-1.21-2.7-2.7-2.7c-1.49,0-2.7,1.21-2.7,2.7c0,1.49,1.21,2.7,2.7,2.7
		C940.57,426.11,941.78,424.91,941.78,423.41"/>
	<path class="st8" d="M797.18,511.74c0-1.49-1.21-2.7-2.7-2.7c-1.49,0-2.7,1.21-2.7,2.7c0,1.49,1.21,2.7,2.7,2.7
		C795.97,514.43,797.18,513.23,797.18,511.74"/>
	<path class="st8" d="M1081.34,434.93c0-1.49-1.21-2.7-2.7-2.7c-1.49,0-2.7,1.21-2.7,2.7c0,1.49,1.21,2.7,2.7,2.7
		C1080.13,437.64,1081.34,436.43,1081.34,434.93"/>
	<path class="st8" d="M828.86,511.74c0-1.49-1.21-2.7-2.7-2.7c-1.49,0-2.7,1.21-2.7,2.7c0,1.49,1.21,2.7,2.7,2.7
		C827.65,514.43,828.86,513.23,828.86,511.74"/>
	<path class="st8" d="M797.18,477.17c0-1.49-1.21-2.7-2.7-2.7c-1.49,0-2.7,1.21-2.7,2.7c0,1.49,1.21,2.7,2.7,2.7
		C795.97,479.88,797.18,478.67,797.18,477.17"/>
	<path class="st8" d="M799.22,588.54c0-1.49-1.21-2.7-2.7-2.7s-2.7,1.21-2.7,2.7c0,1.49,1.21,2.7,2.7,2.7
		S799.22,590.03,799.22,588.54"/>
	<path class="st8" d="M797.18,423.41c0-1.49-1.21-2.7-2.7-2.7c-1.49,0-2.7,1.21-2.7,2.7c0,1.49,1.21,2.7,2.7,2.7
		C795.97,426.11,797.18,424.91,797.18,423.41"/>
	<path class="st8" d="M916.34,442.61c0-1.49-1.21-2.7-2.7-2.7s-2.7,1.21-2.7,2.7c0,1.49,1.21,2.7,2.7,2.7
		S916.34,444.11,916.34,442.61"/>
	<path class="st8" d="M797.54,415.73c0-1.49-1.21-2.7-2.7-2.7c-1.49,0-2.7,1.21-2.7,2.7s1.21,2.7,2.7,2.7
		C796.33,418.43,797.54,417.23,797.54,415.73"/>
	<path class="st8" d="M1060.94,511.74c0-1.49-1.21-2.7-2.7-2.7s-2.7,1.21-2.7,2.7c0,1.49,1.21,2.7,2.7,2.7
		S1060.94,513.23,1060.94,511.74"/>
	<path class="st8" d="M941.78,511.74c0-1.49-1.21-2.7-2.7-2.7c-1.49,0-2.7,1.21-2.7,2.7c0,1.49,1.21,2.7,2.7,2.7
		C940.57,514.43,941.78,513.23,941.78,511.74"/>
	<path class="st8" d="M897.86,454.14c0-1.49-1.21-2.7-2.7-2.7c-1.49,0-2.7,1.21-2.7,2.7c0,1.49,1.21,2.7,2.7,2.7
		C896.65,456.83,897.86,455.63,897.86,454.14"/>
	<path class="st8" d="M823.7,596.21c0-1.49-1.21-2.7-2.7-2.7s-2.7,1.21-2.7,2.7c0,1.49,1.21,2.7,2.7,2.7S823.7,597.71,823.7,596.21"
		/>
	<path class="st8" d="M798.74,550.14c0-1.49-1.21-2.7-2.7-2.7c-1.49,0-2.7,1.21-2.7,2.7c0,1.49,1.21,2.7,2.7,2.7
		C797.53,552.83,798.74,551.63,798.74,550.14"/>
	<path class="st8" d="M1133.06,496.38c0-1.49-1.21-2.7-2.7-2.7c-1.49,0-2.7,1.21-2.7,2.7c0,1.49,1.21,2.7,2.7,2.7
		C1131.85,499.08,1133.06,497.87,1133.06,496.38"/>
	<path class="st8" d="M798.74,577.02c0-1.49-1.21-2.7-2.7-2.7c-1.49,0-2.7,1.21-2.7,2.7c0,1.49,1.21,2.7,2.7,2.7
		C797.53,579.71,798.74,578.51,798.74,577.02"/>
	<path class="st8" d="M798.74,492.54c0-1.49-1.21-2.7-2.7-2.7c-1.49,0-2.7,1.21-2.7,2.7c0,1.49,1.21,2.7,2.7,2.7
		C797.53,495.23,798.74,494.03,798.74,492.54"/>
	<path class="st8" d="M799.22,626.93c0-1.49-1.21-2.7-2.7-2.7s-2.7,1.21-2.7,2.7s1.21,2.7,2.7,2.7S799.22,628.43,799.22,626.93"/>
	<path class="st8" d="M1133.06,450.29c0-1.49-1.21-2.7-2.7-2.7c-1.49,0-2.7,1.21-2.7,2.7c0,1.49,1.21,2.7,2.7,2.7
		C1131.85,452.99,1133.06,451.79,1133.06,450.29"/>
	<path class="st8" d="M860.42,469.49c0-1.49-1.21-2.7-2.7-2.7c-1.49,0-2.7,1.21-2.7,2.7c0,1.49,1.21,2.7,2.7,2.7
		C859.21,472.2,860.42,470.99,860.42,469.49"/>
	<path class="st8" d="M798.74,415.73c0-1.49-1.21-2.7-2.7-2.7c-1.49,0-2.7,1.21-2.7,2.7s1.21,2.7,2.7,2.7
		C797.53,418.43,798.74,417.23,798.74,415.73"/>
	<path class="st8" d="M799.22,550.14c0-1.49-1.21-2.7-2.7-2.7s-2.7,1.21-2.7,2.7c0,1.49,1.21,2.7,2.7,2.7
		S799.22,551.63,799.22,550.14"/>
	<path class="st8" d="M1041.86,473.33c0-1.49-1.21-2.7-2.7-2.7c-1.49,0-2.7,1.21-2.7,2.7c0,1.49,1.21,2.7,2.7,2.7
		C1040.65,476.04,1041.86,474.83,1041.86,473.33"/>
	<path class="st8" d="M862.7,607.73c0-1.49-1.21-2.7-2.7-2.7s-2.7,1.21-2.7,2.7c0,1.49,1.21,2.7,2.7,2.7S862.7,609.23,862.7,607.73"
		/>
	<path class="st8" d="M941.78,450.29c0-1.49-1.21-2.7-2.7-2.7c-1.49,0-2.7,1.21-2.7,2.7c0,1.49,1.21,2.7,2.7,2.7
		C940.57,452.99,941.78,451.79,941.78,450.29"/>
	<path class="st8" d="M828.86,511.74c0-1.49-1.21-2.7-2.7-2.7c-1.49,0-2.7,1.21-2.7,2.7c0,1.49,1.21,2.7,2.7,2.7
		C827.65,514.43,828.86,513.23,828.86,511.74"/>
</g>
</svg>
